<svg xmlns="http://www.w3.org/2000/svg" viewBox="0 0 126 119" role="img"><title>风口裂隘平面图</title><rect width="126" height="119" fill="#edf2f5"/><text style="text-anchor:start" x="4" y="5" font-family="Microsoft YaHei,sans-serif" font-size="3" fill="#294455">风口裂隘 / 折返峡口 · 单次绕脊选择</text><text style="text-anchor:start" x="4" y="9" font-family="Microsoft YaHei,sans-serif" font-size="1.7" fill="#526978">118×90m · 网格5m · 平层底图 · 白盒试玩已认可 · 场景美术阶段</text><g transform="translate(0 12)">
  <title>风口裂隘 — 折返峡口 · 单次绕脊选择</title><desc>从西南窄口折向东北出口；中央风蚀岩脊把近路与北侧缓行小径分开。轮廓是一条有折返的裂隘，不使用方形外场。。单位为米。对应技术白盒已接入独立试玩入口，完整可玩性与平衡仍在验证。</desc>
  <defs><pattern id="desert-1-grid" width="5" height="5" patternUnits="userSpaceOnUse"><path d="M5 0H0V5" fill="none" stroke="#a5bbc8" stroke-width=".13"/></pattern>
  <pattern id="desert-1-hatch" width="1.4" height="1.4" patternUnits="userSpaceOnUse" patternTransform="rotate(40)"><rect width="1.4" height="1.4" fill="#738693"/><path d="M0 0V1.4" stroke="#d1dce1" stroke-width=".35"/></pattern>
  <marker id="desert-1-main" markerWidth="4" markerHeight="4" refX="3.7" refY="2" orient="auto" markerUnits="strokeWidth"><path d="M0 0L4 2 0 4" fill="#087eaa"/></marker><marker id="desert-1-optional" markerWidth="4" markerHeight="4" refX="3.7" refY="2" orient="auto" markerUnits="strokeWidth"><path d="M0 0L4 2 0 4" fill="#47836b"/></marker><marker id="desert-1-return" markerWidth="4" markerHeight="4" refX="3.7" refY="2" orient="auto" markerUnits="strokeWidth"><path d="M0 0L4 2 0 4" fill="#825d98"/></marker><marker id="desert-1-threat" markerWidth="4" markerHeight="4" refX="3.7" refY="2" orient="auto" markerUnits="strokeWidth"><path d="M0 0L4 2 0 4" fill="#b54a48"/></marker></defs>
  <style>text{font-family:'Microsoft YaHei','PingFang SC',sans-serif;fill:#294455;text-anchor:middle;pointer-events:none}.room-label{paint-order:stroke;stroke:#f7faf8;stroke-width:.9;stroke-linejoin:round}.dim{fill:#526978;paint-order:stroke;stroke:#dce6ec;stroke-width:.8}.portal{fill:white;font-family:Consolas,monospace;font-weight:bold}.note{fill:#465f6c;paint-order:stroke;stroke:#dce6ec;stroke-width:1}</style>
  <rect width="126" height="98" fill="#dce6ec"/><g transform="translate(4 4)">
  <polyline points="15,73 24,70 24,54 35,54" fill="none" stroke="#587180" stroke-width="7.1" stroke-linecap="round" stroke-linejoin="round"/><polyline points="35,54 46,54 46,44 65,44" fill="none" stroke="#587180" stroke-width="7.1" stroke-linecap="round" stroke-linejoin="round"/><polyline points="65,44 86,44 86,22 100,22" fill="none" stroke="#587180" stroke-width="7.1" stroke-linecap="round" stroke-linejoin="round"/><polyline points="35,54 35,24" fill="none" stroke="#587180" stroke-width="6.1" stroke-linecap="round" stroke-linejoin="round"/><polyline points="40,24 65,24 65,44" fill="none" stroke="#587180" stroke-width="6.1" stroke-linecap="round" stroke-linejoin="round"/><polygon points="6,61 21,60 26,72 19,84 6,80" fill="#587180" stroke="#587180" stroke-width="1.1" stroke-linejoin="round"/><polygon points="29,46 42,44 46,56 40,64 27,60" fill="#587180" stroke="#587180" stroke-width="1.1" stroke-linejoin="round"/><polygon points="53,31 70,29 82,40 76,56 58,58 50,45" fill="#587180" stroke="#587180" stroke-width="1.1" stroke-linejoin="round"/><polygon points="28,16 45,12 53,21 45,34 29,31" fill="#587180" stroke="#587180" stroke-width="1.1" stroke-linejoin="round"/><polygon points="91,10 111,11 112,29 96,34 87,23" fill="#587180" stroke="#587180" stroke-width="1.1" stroke-linejoin="round"/><polyline points="15,73 24,70 24,54 35,54" fill="none" stroke="#f7faf8" stroke-width="6" stroke-linecap="round" stroke-linejoin="round"/><polyline points="35,54 46,54 46,44 65,44" fill="none" stroke="#f7faf8" stroke-width="6" stroke-linecap="round" stroke-linejoin="round"/><polyline points="65,44 86,44 86,22 100,22" fill="none" stroke="#f7faf8" stroke-width="6" stroke-linecap="round" stroke-linejoin="round"/><polyline points="35,54 35,24" fill="none" stroke="#f7faf8" stroke-width="5" stroke-linecap="round" stroke-linejoin="round"/><polyline points="40,24 65,24 65,44" fill="none" stroke="#f7faf8" stroke-width="5" stroke-linecap="round" stroke-linejoin="round"/><polygon points="6,61 21,60 26,72 19,84 6,80" fill="#f7faf8" stroke="none" stroke-width="0" stroke-linejoin="round"/><polygon points="29,46 42,44 46,56 40,64 27,60" fill="#f7faf8" stroke="none" stroke-width="0" stroke-linejoin="round"/><polygon points="53,31 70,29 82,40 76,56 58,58 50,45" fill="#f7faf8" stroke="none" stroke-width="0" stroke-linejoin="round"/><polygon points="28,16 45,12 53,21 45,34 29,31" fill="#f7faf8" stroke="none" stroke-width="0" stroke-linejoin="round"/><polygon points="91,10 111,11 112,29 96,34 87,23" fill="#f7faf8" stroke="none" stroke-width="0" stroke-linejoin="round"/>
  <rect width="118" height="90" fill="url(#desert-1-grid)"/>
  <polygon points="28,48 31,48 31,52 28,52" fill="url(#desert-1-hatch)" stroke="#435867" stroke-width=".4"><title>实体遮挡，高 2.6m</title></polygon><polygon points="70,46 76,46 76,51 70,51" fill="url(#desert-1-hatch)" stroke="#435867" stroke-width=".4"><title>实体遮挡，高 2.6m</title></polygon><polygon points="43,18 48,18 48,21 43,21" fill="url(#desert-1-hatch)" stroke="#435867" stroke-width=".4"><title>实体遮挡，高 2.6m</title></polygon>
  <g data-layer="sightlines"><g><line x1="72" y1="36" x2="54" y2="44" stroke="#b54a48" stroke-width=".38" stroke-dasharray="1.1 1.1"/><title>弩手正面约 20 米 · 19.7m</title></g></g><g data-layer="routes"><polyline points="15,73 24,70 24,54 35,54" fill="none" stroke="#087eaa" stroke-width="0.6" stroke-dasharray="none" stroke-linejoin="round" marker-end="url(#desert-1-main)"><title>双折入口遮断远端视线</title></polyline><polyline points="35,54 46,54 46,44 65,44" fill="none" stroke="#087eaa" stroke-width="0.6" stroke-dasharray="none" stroke-linejoin="round" marker-end="url(#desert-1-main)"><title>直达交火区的近路</title></polyline><polyline points="65,44 86,44 86,22 100,22" fill="none" stroke="#087eaa" stroke-width="0.6" stroke-dasharray="none" stroke-linejoin="round" marker-end="url(#desert-1-main)"><title>战后出口藏在东侧折角</title></polyline><polyline points="35,54 35,24" fill="none" stroke="#47836b" stroke-width="0.6" stroke-dasharray="1.7 1.2" stroke-linejoin="round" marker-end="url(#desert-1-optional)"><title>沿西侧岩脊向北绕行</title></polyline><polyline points="40,24 65,24 65,44" fill="none" stroke="#47836b" stroke-width="0.6" stroke-dasharray="1.7 1.2" stroke-linejoin="round" marker-end="url(#desert-1-optional)"><title>从北侧进入沙盆，切弩手侧翼</title></polyline></g>
  <g data-layer="dimensions"><g><line x1="21" y1="62" x2="27" y2="62" stroke="#718993" stroke-width=".22"/><text x="28.8" y="62" class="dim" font-size="1.65">6m</text></g><g><line x1="55.5" y1="41" x2="55.5" y2="47" stroke="#718993" stroke-width=".22"/><text x="55.5" y="48.8" class="dim" font-size="1.65">6m</text></g><g><line x1="83" y1="33" x2="89" y2="33" stroke="#718993" stroke-width=".22"/><text x="90.8" y="33" class="dim" font-size="1.65">6m</text></g><g><line x1="32.5" y1="39" x2="37.5" y2="39" stroke="#718993" stroke-width=".22"/><text x="39.3" y="39" class="dim" font-size="1.65">5m</text></g><g><line x1="52.5" y1="21.5" x2="52.5" y2="26.5" stroke="#718993" stroke-width=".22"/><text x="52.5" y="28.3" class="dim" font-size="1.65">5m</text></g></g><g data-layer="labels"><text x="15" y="76" class="room-label" font-size="2.2">避风入口</text><text x="36" y="59" class="room-label" font-size="2.2">折返峡口</text><text x="63" y="51" class="room-label" font-size="2.2">弩手沙盆</text><text x="38" y="28" class="room-label" font-size="2.2">脊后补给径</text><text x="100" y="27" class="room-label" font-size="2.2">东北石门</text></g>
  <g data-layer="encounters"><g><title>A 峡口试探：2 刀客；无爆破和远程交叉火力；跨入峡口触发；本组清理前不激活 B</title><line x1="39" y1="59" x2="33.75505634327077" y2="56.08614241292821" stroke="#b54a48" stroke-width=".55" marker-end="url(#desert-1-threat)"/><circle cx="39" cy="59" r="2.15" fill="#b54a48" stroke="#fff" stroke-width=".5"/><text x="39" y="59.75" class="portal" font-size="2.1">A</text></g><g><title>B 偏置弩手：2 刀客 + 1 弩手；弩手站北偏东；A 清理后，任一路进入沙盆触发</title><line x1="72" y1="36" x2="66.51713070827846" y2="38.436830796320685" stroke="#b54a48" stroke-width=".55" marker-end="url(#desert-1-threat)"/><circle cx="72" cy="36" r="2.15" fill="#b54a48" stroke="#fff" stroke-width=".5"/><text x="72" y="36.75" class="portal" font-size="2.1">B</text></g><g><title>绕行补给</title><path d="M31 21.2l1.8 1.8-1.8 1.8-1.8-1.8z" fill="#b58a26" stroke="#fff" stroke-width=".45"/></g></g><g><circle cx="15" cy="73" r="2.1" fill="#277b74" stroke="#fff" stroke-width=".5"/><text x="15" y="73.7" class="portal" font-size="2.1">S</text></g><g><circle cx="100" cy="22" r="2.1" fill="#455a9e" stroke="#fff" stroke-width=".5"/><text x="100" y="22.7" class="portal" font-size="2.1">X</text></g>
  <g transform="translate(2 89)"><path d="M0-1V0H10V-1M5 0V-1" stroke="#294455" stroke-width=".3" fill="none"/><text x="5" y="-1.8" class="" font-size="1.7">10m</text></g>
  <text x="114" y="3" class="" font-size="2">N ↑</text>
  </g></g><text style="text-anchor:start" x="4" y="114" font-family="Microsoft YaHei,sans-serif" font-size="1.65" fill="#294455">S入口 / X出口 · 蓝主路 / 绿支路 / 紫回接 · 红字小队阵位 · ◆物资</text><text style="text-anchor:start" x="4" y="117" font-family="Microsoft YaHei,sans-serif" font-size="1.65" fill="#294455">浅色可行走 / 蓝灰不可通行 · 斜线实体遮挡2.6m · 通道数字=宽度(m)</text></svg>