<svg xmlns="http://www.w3.org/2000/svg" viewBox="0 0 140 121" role="img"><title>驼铃驿街平面图</title><rect width="140" height="121" fill="#edf2f5"/><text style="text-anchor:start" x="4" y="5" font-family="Microsoft YaHei,sans-serif" font-size="3" fill="#294455">驼铃驿街 / 折线商街 · 连续两次横巷选择</text><text style="text-anchor:start" x="4" y="9" font-family="Microsoft YaHei,sans-serif" font-size="1.7" fill="#526978">132×92m · 网格5m · 平层底图 · 白盒试玩已认可 · 场景美术阶段</text><g transform="translate(0 12)">
  <title>驼铃驿街 — 折线商街 · 连续两次横巷选择</title><desc>沿东西向驿街推进，两座错位院落通过横巷串联；北侧库院与南侧货棚形成不等长的替代线路。入口在西南、出口在东北，视线每过一个院口转向。。单位为米。对应技术白盒已接入独立试玩入口，完整可玩性与平衡仍在验证。</desc>
  <defs><pattern id="desert-2-grid" width="5" height="5" patternUnits="userSpaceOnUse"><path d="M5 0H0V5" fill="none" stroke="#a5bbc8" stroke-width=".13"/></pattern>
  <pattern id="desert-2-hatch" width="1.4" height="1.4" patternUnits="userSpaceOnUse" patternTransform="rotate(40)"><rect width="1.4" height="1.4" fill="#738693"/><path d="M0 0V1.4" stroke="#d1dce1" stroke-width=".35"/></pattern>
  <marker id="desert-2-main" markerWidth="4" markerHeight="4" refX="3.7" refY="2" orient="auto" markerUnits="strokeWidth"><path d="M0 0L4 2 0 4" fill="#087eaa"/></marker><marker id="desert-2-optional" markerWidth="4" markerHeight="4" refX="3.7" refY="2" orient="auto" markerUnits="strokeWidth"><path d="M0 0L4 2 0 4" fill="#47836b"/></marker><marker id="desert-2-return" markerWidth="4" markerHeight="4" refX="3.7" refY="2" orient="auto" markerUnits="strokeWidth"><path d="M0 0L4 2 0 4" fill="#825d98"/></marker><marker id="desert-2-threat" markerWidth="4" markerHeight="4" refX="3.7" refY="2" orient="auto" markerUnits="strokeWidth"><path d="M0 0L4 2 0 4" fill="#b54a48"/></marker></defs>
  <style>text{font-family:'Microsoft YaHei','PingFang SC',sans-serif;fill:#294455;text-anchor:middle;pointer-events:none}.room-label{paint-order:stroke;stroke:#f7faf8;stroke-width:.9;stroke-linejoin:round}.dim{fill:#526978;paint-order:stroke;stroke:#dce6ec;stroke-width:.8}.portal{fill:white;font-family:Consolas,monospace;font-weight:bold}.note{fill:#465f6c;paint-order:stroke;stroke:#dce6ec;stroke-width:1}</style>
  <rect width="140" height="100" fill="#dce6ec"/><g transform="translate(4 4)">
  <polyline points="15,75 36,70" fill="none" stroke="#587180" stroke-width="8.1" stroke-linecap="round" stroke-linejoin="round"/><polyline points="36,70 52,70 52,57 68,57" fill="none" stroke="#587180" stroke-width="7.1" stroke-linecap="round" stroke-linejoin="round"/><polyline points="68,57 85,57 85,40 103,40" fill="none" stroke="#587180" stroke-width="7.1" stroke-linecap="round" stroke-linejoin="round"/><polyline points="103,40 120,40 120,17" fill="none" stroke="#587180" stroke-width="7.1" stroke-linecap="round" stroke-linejoin="round"/><polyline points="36,70 36,30 60,30" fill="none" stroke="#587180" stroke-width="6.1" stroke-linecap="round" stroke-linejoin="round"/><polyline points="60,30 68,30 68,57" fill="none" stroke="#587180" stroke-width="6.1" stroke-linecap="round" stroke-linejoin="round"/><polyline points="60,30 81,30 81,20 103,20 103,40" fill="none" stroke="#587180" stroke-width="6.1" stroke-linecap="round" stroke-linejoin="round"/><polyline points="68,57 68,83" fill="none" stroke="#587180" stroke-width="5.1" stroke-linecap="round" stroke-linejoin="round"/><polygon points="6,68 20,68 20,75 25,75 25,86 6,86" fill="#587180" stroke="#587180" stroke-width="1.1" stroke-linejoin="round"/><polygon points="24,59 48,59 48,82 29,82 29,76 24,76" fill="#587180" stroke="#587180" stroke-width="1.1" stroke-linejoin="round"/><polygon points="57,46 80,46 80,54 84,54 84,72 57,72" fill="#587180" stroke="#587180" stroke-width="1.1" stroke-linejoin="round"/><polygon points="47,16 70,16 70,24 76,24 76,32 70,32 70,39 47,39" fill="#587180" stroke="#587180" stroke-width="1.1" stroke-linejoin="round"/><polygon points="91,28 114,28 114,35 118,35 118,48 112,48 112,55 91,55" fill="#587180" stroke="#587180" stroke-width="1.1" stroke-linejoin="round"/><polygon points="58,79 76,79 76,86 58,86" fill="#587180" stroke="#587180" stroke-width="1.1" stroke-linejoin="round"/><polygon points="113,7 126,7 126,22 113,22" fill="#587180" stroke="#587180" stroke-width="1.1" stroke-linejoin="round"/><polyline points="15,75 36,70" fill="none" stroke="#f7faf8" stroke-width="7" stroke-linecap="round" stroke-linejoin="round"/><polyline points="36,70 52,70 52,57 68,57" fill="none" stroke="#f7faf8" stroke-width="6" stroke-linecap="round" stroke-linejoin="round"/><polyline points="68,57 85,57 85,40 103,40" fill="none" stroke="#f7faf8" stroke-width="6" stroke-linecap="round" stroke-linejoin="round"/><polyline points="103,40 120,40 120,17" fill="none" stroke="#f7faf8" stroke-width="6" stroke-linecap="round" stroke-linejoin="round"/><polyline points="36,70 36,30 60,30" fill="none" stroke="#f7faf8" stroke-width="5" stroke-linecap="round" stroke-linejoin="round"/><polyline points="60,30 68,30 68,57" fill="none" stroke="#f7faf8" stroke-width="5" stroke-linecap="round" stroke-linejoin="round"/><polyline points="60,30 81,30 81,20 103,20 103,40" fill="none" stroke="#f7faf8" stroke-width="5" stroke-linecap="round" stroke-linejoin="round"/><polyline points="68,57 68,83" fill="none" stroke="#f7faf8" stroke-width="4" stroke-linecap="round" stroke-linejoin="round"/><polygon points="6,68 20,68 20,75 25,75 25,86 6,86" fill="#f7faf8" stroke="none" stroke-width="0" stroke-linejoin="round"/><polygon points="24,59 48,59 48,82 29,82 29,76 24,76" fill="#f7faf8" stroke="none" stroke-width="0" stroke-linejoin="round"/><polygon points="57,46 80,46 80,54 84,54 84,72 57,72" fill="#f7faf8" stroke="none" stroke-width="0" stroke-linejoin="round"/><polygon points="47,16 70,16 70,24 76,24 76,32 70,32 70,39 47,39" fill="#f7faf8" stroke="none" stroke-width="0" stroke-linejoin="round"/><polygon points="91,28 114,28 114,35 118,35 118,48 112,48 112,55 91,55" fill="#f7faf8" stroke="none" stroke-width="0" stroke-linejoin="round"/><polygon points="58,79 76,79 76,86 58,86" fill="#f7faf8" stroke="none" stroke-width="0" stroke-linejoin="round"/><polygon points="113,7 126,7 126,22 113,22" fill="#f7faf8" stroke="none" stroke-width="0" stroke-linejoin="round"/>
  <rect width="132" height="92" fill="url(#desert-2-grid)"/>
  <polygon points="40,61 46,61 46,65 40,65" fill="url(#desert-2-hatch)" stroke="#435867" stroke-width=".4"><title>实体遮挡，高 2.6m</title></polygon><polygon points="73,62 78,62 78,68 73,68" fill="url(#desert-2-hatch)" stroke="#435867" stroke-width=".4"><title>实体遮挡，高 2.6m</title></polygon><polygon points="50,20 54,20 54,27 50,27" fill="url(#desert-2-hatch)" stroke="#435867" stroke-width=".4"><title>实体遮挡，高 2.6m</title></polygon><polygon points="108,31 113,31 113,36 108,36" fill="url(#desert-2-hatch)" stroke="#435867" stroke-width=".4"><title>实体遮挡，高 2.6m</title></polygon>
  <g data-layer="sightlines"><g><line x1="77" y1="51" x2="59" y2="57" stroke="#b54a48" stroke-width=".38" stroke-dasharray="1.1 1.1"/><title>院内短斜射线 · 19.0m</title></g><g><line x1="98" y1="48" x2="92" y2="33" stroke="#b54a48" stroke-width=".38" stroke-dasharray="1.1 1.1"/><title>盾卫前场观察面 · 16.2m</title></g></g><g data-layer="routes"><polyline points="15,75 36,70" fill="none" stroke="#087eaa" stroke-width="0.6" stroke-dasharray="none" stroke-linejoin="round" marker-end="url(#desert-2-main)"><title>南门到货棚的宽进场</title></polyline><polyline points="36,70 52,70 52,57 68,57" fill="none" stroke="#087eaa" stroke-width="0.6" stroke-dasharray="none" stroke-linejoin="round" marker-end="url(#desert-2-main)"><title>折线主街，院口遮断远端</title></polyline><polyline points="68,57 85,57 85,40 103,40" fill="none" stroke="#087eaa" stroke-width="0.6" stroke-dasharray="none" stroke-linejoin="round" marker-end="url(#desert-2-main)"><title>第二个折角切换接敌方向</title></polyline><polyline points="103,40 120,40 120,17" fill="none" stroke="#087eaa" stroke-width="0.6" stroke-dasharray="none" stroke-linejoin="round" marker-end="url(#desert-2-main)"><title>库门清理后的离场通道</title></polyline><polyline points="36,70 36,30 60,30" fill="none" stroke="#47836b" stroke-width="0.6" stroke-dasharray="1.7 1.2" stroke-linejoin="round" marker-end="url(#desert-2-optional)"><title>第一横巷绕到北库</title></polyline><polyline points="60,30 68,30 68,57" fill="none" stroke="#825d98" stroke-width="0.6" stroke-dasharray="1.7 1.2" stroke-linejoin="round" marker-end="url(#desert-2-return)"><title>从水井院背侧接回主街</title></polyline><polyline points="60,30 81,30 81,20 103,20 103,40" fill="none" stroke="#47836b" stroke-width="0.6" stroke-dasharray="1.7 1.2" stroke-linejoin="round" marker-end="url(#desert-2-optional)"><title>北侧库间巷，绕过水井院</title></polyline><polyline points="68,57 68,83" fill="none" stroke="#47836b" stroke-width="0.6" stroke-dasharray="1.7 1.2" stroke-linejoin="round" marker-end="url(#desert-2-optional)"><title>可视终点的短补给折返</title></polyline></g>
  <g data-layer="dimensions"><g><line x1="24.68932815442886" y1="69.09517824860121" x2="26.31067184557114" y2="75.90482175139879" stroke="#718993" stroke-width=".22"/><text x="26.72758879472201" y="77.65587293783244" class="dim" font-size="1.65">7m</text></g><g><line x1="44" y1="67" x2="44" y2="73" stroke="#718993" stroke-width=".22"/><text x="44" y="74.8" class="dim" font-size="1.65">6m</text></g><g><line x1="94" y1="37" x2="94" y2="43" stroke="#718993" stroke-width=".22"/><text x="94" y="44.8" class="dim" font-size="1.65">6m</text></g><g><line x1="117" y1="28.5" x2="123" y2="28.5" stroke="#718993" stroke-width=".22"/><text x="124.8" y="28.5" class="dim" font-size="1.65">6m</text></g><g><line x1="33.5" y1="50" x2="38.5" y2="50" stroke="#718993" stroke-width=".22"/><text x="40.3" y="50" class="dim" font-size="1.65">5m</text></g><g><line x1="70.5" y1="43.5" x2="65.5" y2="43.5" stroke="#718993" stroke-width=".22"/><text x="63.7" y="43.5" class="dim" font-size="1.65">5m</text></g><g><line x1="92" y1="17.5" x2="92" y2="22.5" stroke="#718993" stroke-width=".22"/><text x="92" y="24.3" class="dim" font-size="1.65">5m</text></g><g><line x1="70" y1="70" x2="66" y2="70" stroke="#718993" stroke-width=".22"/><text x="64.2" y="70" class="dim" font-size="1.65">4m</text></g></g><g data-layer="labels"><text x="14" y="80" class="room-label" font-size="2.2">南门</text><text x="37" y="76" class="room-label" font-size="2.2">前货棚</text><text x="68" y="64" class="room-label" font-size="2.2">水井院</text><text x="58" y="23" class="room-label" font-size="2.2">北库院</text><text x="104" y="47" class="room-label" font-size="2.2">库门前场</text><text x="66" y="83" class="room-label" font-size="2.2">南侧卸货湾</text><text x="120" y="13" class="room-label" font-size="2.2">东驿门</text></g>
  <g data-layer="encounters"><g><title>A 货棚刀客：3 刀客；从货棚深处前压；进入货棚后触发</title><line x1="42" y1="75" x2="36.20259036239252" y2="73.45402409663801" stroke="#b54a48" stroke-width=".55" marker-end="url(#desert-2-threat)"/><circle cx="42" cy="75" r="2.15" fill="#b54a48" stroke="#fff" stroke-width=".5"/><text x="42" y="75.75" class="portal" font-size="2.1">A</text></g><g><title>B 井院分线：2 刀客 + 2 弩手；替代北库巡逻同配额；进入井院或北库后选择一个部署点，仅结算一次</title><line x1="77" y1="51" x2="71.30790021169692" y2="52.89736659610103" stroke="#b54a48" stroke-width=".55" marker-end="url(#desert-2-threat)"/><circle cx="77" cy="51" r="2.15" fill="#b54a48" stroke="#fff" stroke-width=".5"/><text x="77" y="51.75" class="portal" font-size="2.1">B</text></g><g><title>C 库门盾卫：1 盾卫 + 2 刀客；盾卫位于场地偏南；前一区域清理后，进入库门前场触发</title><line x1="98" y1="48" x2="94.4" y2="43.2" stroke="#b54a48" stroke-width=".55" marker-end="url(#desert-2-threat)"/><circle cx="98" cy="48" r="2.15" fill="#b54a48" stroke="#fff" stroke-width=".5"/><text x="98" y="48.75" class="portal" font-size="2.1">C</text></g><g><title>卸货湾补给</title><path d="M62 81.2l1.8 1.8-1.8 1.8-1.8-1.8z" fill="#b58a26" stroke="#fff" stroke-width=".45"/></g><g><title>北库可选宝箱</title><path d="M66 21.2l1.8 1.8-1.8 1.8-1.8-1.8z" fill="#b58a26" stroke="#fff" stroke-width=".45"/></g></g><g><circle cx="15" cy="75" r="2.1" fill="#277b74" stroke="#fff" stroke-width=".5"/><text x="15" y="75.7" class="portal" font-size="2.1">S</text></g><g><circle cx="120" cy="17" r="2.1" fill="#455a9e" stroke="#fff" stroke-width=".5"/><text x="120" y="17.7" class="portal" font-size="2.1">X</text></g>
  <g transform="translate(2 91)"><path d="M0-1V0H10V-1M5 0V-1" stroke="#294455" stroke-width=".3" fill="none"/><text x="5" y="-1.8" class="" font-size="1.7">10m</text></g>
  <text x="128" y="3" class="" font-size="2">N ↑</text>
  </g></g><text style="text-anchor:start" x="4" y="116" font-family="Microsoft YaHei,sans-serif" font-size="1.65" fill="#294455">S入口 / X出口 · 蓝主路 / 绿支路 / 紫回接 · 红字小队阵位 · ◆物资</text><text style="text-anchor:start" x="4" y="119" font-family="Microsoft YaHei,sans-serif" font-size="1.65" fill="#294455">浅色可行走 / 蓝灰不可通行 · 斜线实体遮挡2.6m · 通道数字=宽度(m)</text></svg>