<svg xmlns="http://www.w3.org/2000/svg" viewBox="0 0 174 129" role="img"><title>霜冠裂厅平面图</title><rect width="174" height="129" fill="#edf2f5"/><text style="text-anchor:start" x="4" y="5" font-family="Microsoft YaHei,sans-serif" font-size="3" fill="#294455">霜冠裂厅 / 东侧暖厅准备 · 非对称裂厅决战</text><text style="text-anchor:start" x="4" y="9" font-family="Microsoft YaHei,sans-serif" font-size="1.7" fill="#526978">166×100m · 网格5m · 平层底图 · 扩展布局与战前补给 · 运行时复测</text><g transform="translate(0 12)">
  <title>霜冠裂厅 — 东侧暖厅准备 · 非对称裂厅决战</title><desc>暖厅商人准备房独立置于裂厅东侧，向南折入旧前厅后再由原宽门入场；主厅、不对称侧室和西出口保持原战斗比例。。单位为米。对应技术白盒已接入独立试玩入口，完整可玩性与平衡仍在验证。</desc>
  <defs><pattern id="frost-5-grid" width="5" height="5" patternUnits="userSpaceOnUse"><path d="M5 0H0V5" fill="none" stroke="#a5bbc8" stroke-width=".13"/></pattern>
  <pattern id="frost-5-hatch" width="1.4" height="1.4" patternUnits="userSpaceOnUse" patternTransform="rotate(40)"><rect width="1.4" height="1.4" fill="#738693"/><path d="M0 0V1.4" stroke="#d1dce1" stroke-width=".35"/></pattern>
  <marker id="frost-5-main" markerWidth="4" markerHeight="4" refX="3.7" refY="2" orient="auto" markerUnits="strokeWidth"><path d="M0 0L4 2 0 4" fill="#087eaa"/></marker><marker id="frost-5-optional" markerWidth="4" markerHeight="4" refX="3.7" refY="2" orient="auto" markerUnits="strokeWidth"><path d="M0 0L4 2 0 4" fill="#47836b"/></marker><marker id="frost-5-return" markerWidth="4" markerHeight="4" refX="3.7" refY="2" orient="auto" markerUnits="strokeWidth"><path d="M0 0L4 2 0 4" fill="#825d98"/></marker><marker id="frost-5-threat" markerWidth="4" markerHeight="4" refX="3.7" refY="2" orient="auto" markerUnits="strokeWidth"><path d="M0 0L4 2 0 4" fill="#b54a48"/></marker></defs>
  <style>text{font-family:'Microsoft YaHei','PingFang SC',sans-serif;fill:#294455;text-anchor:middle;pointer-events:none}.room-label{paint-order:stroke;stroke:#f7faf8;stroke-width:.9;stroke-linejoin:round}.dim{fill:#526978;paint-order:stroke;stroke:#dce6ec;stroke-width:.8}.portal{fill:white;font-family:Consolas,monospace;font-weight:bold}.note{fill:#465f6c;paint-order:stroke;stroke:#dce6ec;stroke-width:1}</style>
  <rect width="174" height="108" fill="#dce6ec"/><g transform="translate(4 4)">
  <polyline points="95,41 86,43 76,42" fill="none" stroke="#587180" stroke-width="9.1" stroke-linecap="round" stroke-linejoin="round"/><polyline points="36,33 28,30 19,24" fill="none" stroke="#587180" stroke-width="7.1" stroke-linecap="round" stroke-linejoin="round"/><polyline points="56,28 56,22 55,12" fill="none" stroke="#587180" stroke-width="7.1" stroke-linecap="round" stroke-linejoin="round"/><polyline points="38,55 33,61 26,70" fill="none" stroke="#587180" stroke-width="7.1" stroke-linecap="round" stroke-linejoin="round"/><polyline points="129,41 116,57 107,57 98,43" fill="none" stroke="#587180" stroke-width="9.1" stroke-linecap="round" stroke-linejoin="round"/><polygon points="90,32 106,32 106,49 90,49" fill="#587180" stroke="#587180" stroke-width="1.1" stroke-linejoin="round"/><polygon points="29,28 46,28 46,22 70,22 70,28 81,28 81,51 73,51 73,64 47,64 47,59 31,59 31,49 27,49 27,36 29,36" fill="#587180" stroke="#587180" stroke-width="1.1" stroke-linejoin="round"/><polygon points="45,6 64,6 64,17 45,17" fill="#587180" stroke="#587180" stroke-width="1.1" stroke-linejoin="round"/><polygon points="13,64 32,64 32,77 24,77 24,81 13,81" fill="#587180" stroke="#587180" stroke-width="1.1" stroke-linejoin="round"/><polygon points="6,14 25,14 25,30 6,30" fill="#587180" stroke="#587180" stroke-width="1.1" stroke-linejoin="round"/><polygon points="124,22 154,22 154,50 124,50" fill="#587180" stroke="#587180" stroke-width="1.1" stroke-linejoin="round"/><polyline points="95,41 86,43 76,42" fill="none" stroke="#f7faf8" stroke-width="8" stroke-linecap="round" stroke-linejoin="round"/><polyline points="36,33 28,30 19,24" fill="none" stroke="#f7faf8" stroke-width="6" stroke-linecap="round" stroke-linejoin="round"/><polyline points="56,28 56,22 55,12" fill="none" stroke="#f7faf8" stroke-width="6" stroke-linecap="round" stroke-linejoin="round"/><polyline points="38,55 33,61 26,70" fill="none" stroke="#f7faf8" stroke-width="6" stroke-linecap="round" stroke-linejoin="round"/><polyline points="129,41 116,57 107,57 98,43" fill="none" stroke="#f7faf8" stroke-width="8" stroke-linecap="round" stroke-linejoin="round"/><polygon points="90,32 106,32 106,49 90,49" fill="#f7faf8" stroke="none" stroke-width="0" stroke-linejoin="round"/><polygon points="29,28 46,28 46,22 70,22 70,28 81,28 81,51 73,51 73,64 47,64 47,59 31,59 31,49 27,49 27,36 29,36" fill="#f7faf8" stroke="none" stroke-width="0" stroke-linejoin="round"/><polygon points="45,6 64,6 64,17 45,17" fill="#f7faf8" stroke="none" stroke-width="0" stroke-linejoin="round"/><polygon points="13,64 32,64 32,77 24,77 24,81 13,81" fill="#f7faf8" stroke="none" stroke-width="0" stroke-linejoin="round"/><polygon points="6,14 25,14 25,30 6,30" fill="#f7faf8" stroke="none" stroke-width="0" stroke-linejoin="round"/><polygon points="124,22 154,22 154,50 124,50" fill="#f7faf8" stroke="none" stroke-width="0" stroke-linejoin="round"/>
  <rect width="166" height="100" fill="url(#frost-5-grid)"/>
  <polygon points="43,51 49,51 49,57 43,57" fill="url(#frost-5-hatch)" stroke="#435867" stroke-width=".4"><title>实体遮挡，高 2.6m</title></polygon><polygon points="64,29 70,29 70,34 64,34" fill="url(#frost-5-hatch)" stroke="#435867" stroke-width=".4"><title>实体遮挡，高 2.6m</title></polygon>
  <g data-layer="sightlines"><g><line x1="54" y1="43" x2="77" y2="42" stroke="#b54a48" stroke-width=".38" stroke-dasharray="1.1 1.1"/><title>主厅起手方向 · 23.0m</title></g></g><g data-layer="routes"><polyline points="95,41 86,43 76,42" fill="none" stroke="#087eaa" stroke-width="0.6" stroke-dasharray="none" stroke-linejoin="round" marker-end="url(#frost-5-main)"><title>宽门可先观察，再进入 Boss 场</title></polyline><polyline points="36,33 28,30 19,24" fill="none" stroke="#087eaa" stroke-width="0.6" stroke-dasharray="none" stroke-linejoin="round" marker-end="url(#frost-5-main)"><title>胜利后的离场方向，与入口不对称</title></polyline><polyline points="56,28 56,22 55,12" fill="none" stroke="#47836b" stroke-width="0.6" stroke-dasharray="1.7 1.2" stroke-linejoin="round" marker-end="url(#frost-5-optional)"><title>短退避室，快速回场</title></polyline><polyline points="38,55 33,61 26,70" fill="none" stroke="#47836b" stroke-width="0.6" stroke-dasharray="1.7 1.2" stroke-linejoin="round" marker-end="url(#frost-5-optional)"><title>较远退避室，牺牲输出时间</title></polyline><polyline points="129,41 116,57 107,57 98,43" fill="none" stroke="#087eaa" stroke-width="0.6" stroke-dasharray="none" stroke-linejoin="round" marker-end="url(#frost-5-main)"><title>东补给厅向南折入旧前厅，实体雪墙隔开主厅射线</title></polyline></g>
  <g data-layer="dimensions"><g><line x1="80.60198512391601" y1="46.48014876083996" x2="81.39801487608399" y2="38.51985123916004" stroke="#718993" stroke-width=".22"/><text x="81.5771215703218" y="36.72878429678207" class="dim" font-size="1.65">8m</text></g><g><line x1="21.835899411324313" y1="29.49615088301353" x2="25.164100588675687" y2="24.50384911698647" stroke="#718993" stroke-width=".22"/><text x="26.1625609418811" y="23.00615858717835" class="dim" font-size="1.65">6m</text></g><g><line x1="52.51488842937003" y1="17.298511157062997" x2="58.48511157062997" y2="16.701488842937003" stroke="#718993" stroke-width=".22"/><text x="60.27617851300795" y="16.522382148699204" class="dim" font-size="1.65">6m</text></g><g><line x1="31.868056652128978" y1="67.34182184054477" x2="27.131943347871022" y2="63.65817815945524" stroke="#718993" stroke-width=".22"/><text x="25.711109356593635" y="62.553085055128385" class="dim" font-size="1.65">6m</text></g><g><line x1="125.60445600046506" y1="51.52237050037786" x2="119.39554399953494" y2="46.47762949962214" stroke="#718993" stroke-width=".22"/><text x="117.99853879932566" y="45.3425627744521" class="dim" font-size="1.65">8m</text></g></g><g data-layer="labels"><text x="98" y="43" class="room-label" font-size="2.2">东前厅</text><text x="56" y="60" class="room-label" font-size="2.2">霜冠主厅</text><text x="56" y="13" class="room-label" font-size="2.2">北侧避让室</text><text x="22" y="73" class="room-label" font-size="2.2">西南残殿</text><text x="16" y="24" class="room-label" font-size="2.2">西北离场门</text><text x="139" y="36" class="room-label" font-size="2.2">山门热茶补给厅</text></g>
  <g data-layer="encounters"><g><title>BOSS 霜冠 Boss：霜翼妖后 × 1；实际半径 1.3 米；仅主厅 Boss 战；侧室和前厅不放额外怪物</title><line x1="54" y1="43" x2="59.99433695013036" y2="42.73937665434216" stroke="#b54a48" stroke-width=".55" marker-end="url(#frost-5-threat)"/><circle cx="54" cy="43" r="2.15" fill="#b54a48" stroke="#fff" stroke-width=".5"/><text x="54" y="43.75" class="portal" font-size="2.1">首</text></g><g><title>霜冠裂厅前补给 · 武器、秘卷、强化、恢复、弹药</title><rect x="136" y="32" width="6" height="6" rx=".8" fill="#277b74" stroke="#fff" stroke-width=".5"/><text x="139" y="36" class="portal" font-size="2.6">商</text></g></g><g><circle cx="148" cy="37" r="2.1" fill="#277b74" stroke="#fff" stroke-width=".5"/><text x="148" y="37.7" class="portal" font-size="2.1">S</text></g><g><circle cx="12" cy="21" r="2.1" fill="#455a9e" stroke="#fff" stroke-width=".5"/><text x="12" y="21.7" class="portal" font-size="2.1">X</text></g>
  <g transform="translate(2 99)"><path d="M0-1V0H10V-1M5 0V-1" stroke="#294455" stroke-width=".3" fill="none"/><text x="5" y="-1.8" class="" font-size="1.7">10m</text></g>
  <text x="162" y="3" class="" font-size="2">N ↑</text>
  </g></g><text style="text-anchor:start" x="4" y="124" font-family="Microsoft YaHei,sans-serif" font-size="1.65" fill="#294455">S入口 / X出口 · 蓝主路 / 绿支路 / 紫回接 · 红字小队阵位 · ◆物资</text><text style="text-anchor:start" x="4" y="127" font-family="Microsoft YaHei,sans-serif" font-size="1.65" fill="#294455">浅色可行走 / 蓝灰不可通行 · 斜线实体遮挡2.6m · 通道数字=宽度(m)</text></svg>